<svg xmlns="http://www.w3.org/2000/svg" width="40px" height="40px" viewBox="0 0 38.996 38.997"><circle fill="#E9E9E9" cx="19.498" cy="19.498" r="19.498"/><path fill="#3D4146" d="M11.73 30.338c-2.035.847-2.888 1.104-3.99 1.53-.367.14-1.534.417-2.596.722 3.567 3.927 8.696 6.406 14.418 6.406 5.71 0 10.828-2.47 14.395-6.38-1.06-.314-2.195-.603-2.572-.75-1.104-.425-1.956-.683-3.99-1.528-1.247-.518-2.854-2.293-2.854-3.354 0-1.4.392-2.165 1.197-3.23.808-1.06 2.347-5.035 2.347-10.187 0-1.973-1.89-7.42-8.254-7.77-.006-.014-.018-.022-.023-.036-.084.002-.16.014-.244.017-.024 0-.045-.005-.07-.006 0 .005-.003.008-.004.01-6.516.25-8.447 5.795-8.447 7.788 0 4.652 1.54 9.128 2.345 10.19.807 1.062 1.346 1.452 1.346 2.853-.003 1.064-1.758 3.21-3.004 3.728z"/></svg>